<svg  height="140" viewBox="0 0 1024 1008" fill="none" xmlns="http://www.w3.org/2000/svg">
<path d="M247.01 937.045C247.01 942.757 246.143 947.908 244.409 952.498C242.777 957.088 240.533 961.015 237.677 964.279C234.821 967.441 231.455 969.889 227.579 971.623C223.703 973.357 219.623 974.224 215.339 974.224C210.647 974.224 206.618 973.612 203.252 972.388C199.886 971.062 196.673 969.022 193.613 966.268H193.307L192.389 973H186.116V864.37H194.072V910.117C196.214 907.771 199.172 905.527 202.946 903.385C206.822 901.243 211.208 900.172 216.104 900.172C220.388 900.172 224.417 900.937 228.191 902.467C231.965 903.997 235.229 906.292 237.983 909.352C240.839 912.412 243.032 916.288 244.562 920.98C246.194 925.57 247.01 930.925 247.01 937.045ZM238.748 937.198C238.748 927.1 236.555 919.501 232.169 914.401C227.885 909.199 222.275 906.598 215.339 906.598C213.197 906.598 211.055 906.955 208.913 907.669C206.873 908.281 204.935 909.148 203.099 910.27C201.263 911.29 199.58 912.514 198.05 913.942C196.52 915.268 195.194 916.645 194.072 918.073V959.689C196.112 962.035 198.866 963.973 202.334 965.503C205.904 967.033 209.627 967.798 213.503 967.798C216.869 967.798 220.031 967.135 222.989 965.809C226.049 964.483 228.752 962.545 231.098 959.995C233.444 957.343 235.28 954.13 236.606 950.356C238.034 946.48 238.748 942.094 238.748 937.198ZM265.604 973V901.09H273.56V973H265.604ZM269.735 882.577C268.103 882.577 266.675 882.067 265.451 881.047C264.329 879.925 263.768 878.395 263.768 876.457C263.768 874.417 264.329 872.836 265.451 871.714C266.573 870.592 267.95 870.031 269.582 870.031C271.112 870.031 272.438 870.592 273.56 871.714C274.784 872.734 275.396 874.315 275.396 876.457C275.396 878.497 274.835 880.027 273.713 881.047C272.591 882.067 271.265 882.577 269.735 882.577ZM305.371 973H297.415V901.09H303.229L304.453 911.035C307.921 907.771 311.644 905.17 315.622 903.232C319.702 901.192 324.292 900.172 329.392 900.172C336.736 900.172 342.448 902.212 346.528 906.292C350.71 910.372 352.801 916.084 352.801 923.428V973H344.845V925.417C344.845 922.765 344.539 920.317 343.927 918.073C343.417 915.727 342.448 913.738 341.02 912.106C339.694 910.372 337.858 909.046 335.512 908.128C333.268 907.108 330.463 906.598 327.097 906.598C323.221 906.598 319.345 907.618 315.469 909.658C311.695 911.596 308.329 914.248 305.371 917.614V973ZM374.025 907.363C378.819 904.813 383.205 902.977 387.183 901.855C391.263 900.733 395.598 900.172 400.188 900.172C403.452 900.172 406.512 900.631 409.368 901.549C412.326 902.467 414.876 903.946 417.018 905.986C419.262 908.026 420.996 910.729 422.22 914.095C423.546 917.359 424.209 921.388 424.209 926.182V973H418.701L417.018 963.514H416.712C413.754 967.084 410.286 969.787 406.308 971.623C402.33 973.357 397.893 974.224 392.997 974.224C389.631 974.224 386.52 973.765 383.664 972.847C380.808 971.827 378.309 970.399 376.167 968.563C374.127 966.727 372.495 964.534 371.271 961.984C370.149 959.332 369.588 956.425 369.588 953.263C369.588 949.489 370.353 946.174 371.883 943.318C373.413 940.462 375.555 938.116 378.309 936.28C381.063 934.342 384.327 932.914 388.101 931.996C391.977 931.078 396.261 930.619 400.953 930.619H416.253V925.876C416.253 918.94 414.723 913.993 411.663 911.035C408.603 908.077 404.625 906.598 399.729 906.598C396.771 906.598 393.354 907.057 389.478 907.975C385.602 908.893 381.471 910.576 377.085 913.024L374.025 907.363ZM416.253 936.892L403.554 937.045C398.964 937.147 395.037 937.657 391.773 938.575C388.509 939.391 385.806 940.513 383.664 941.941C381.624 943.267 380.145 944.899 379.227 946.837C378.309 948.673 377.85 950.662 377.85 952.804C377.85 955.456 378.309 957.751 379.227 959.689C380.145 961.525 381.369 963.055 382.899 964.279C384.429 965.503 386.214 966.421 388.254 967.033C390.396 967.543 392.64 967.798 394.986 967.798C396.822 967.798 398.709 967.594 400.647 967.186C402.585 966.676 404.472 965.962 406.308 965.044C408.246 964.024 410.082 962.8 411.816 961.372C413.55 959.842 415.029 958.006 416.253 955.864V936.892ZM445.627 973V901.09H450.829L452.665 915.472C454.399 910.882 457.357 907.21 461.539 904.456C465.721 901.6 470.413 900.172 475.615 900.172C478.063 900.172 480.205 900.376 482.041 900.784C483.877 901.192 485.305 901.651 486.325 902.161L484.795 909.199C483.571 908.689 482.194 908.23 480.664 907.822C479.134 907.414 477.349 907.21 475.309 907.21C472.351 907.21 469.546 907.72 466.894 908.74C464.344 909.76 462.049 911.341 460.009 913.483C458.071 915.625 456.49 918.328 455.266 921.592C454.144 924.754 453.583 928.528 453.583 932.914V973H445.627ZM493.217 901.09H501.479L520.145 948.826L525.653 965.044H525.959L530.702 948.826L547.532 901.09H555.182L527.489 979.12C524.735 986.872 521.216 993.094 516.932 997.786C512.648 1002.48 507.497 1006 501.479 1008.34L498.266 1002.53C503.468 1000.39 507.905 997.429 511.577 993.655C515.249 989.881 518.309 984.373 520.757 977.131L522.134 973L493.217 901.09ZM594.925 925.111V931.843H561.265V925.111H594.925ZM647.752 907.21H623.578V954.334C623.578 959.128 624.649 962.392 626.791 964.126C628.933 965.758 631.891 966.574 635.665 966.574C638.623 966.574 641.377 966.319 643.927 965.809C646.477 965.197 648.619 964.585 650.353 963.973L651.577 969.94C649.537 970.756 647.038 971.47 644.08 972.082C641.122 972.694 637.858 973 634.288 973C628.168 973 623.527 971.572 620.365 968.716C617.203 965.758 615.622 961.321 615.622 955.405V907.21H602.617V901.09H615.622V878.14H623.578V901.09H647.752V907.21ZM665.714 973V901.09H670.916L672.752 915.472C674.486 910.882 677.444 907.21 681.626 904.456C685.808 901.6 690.5 900.172 695.702 900.172C698.15 900.172 700.292 900.376 702.128 900.784C703.964 901.192 705.392 901.651 706.412 902.161L704.882 909.199C703.658 908.689 702.281 908.23 700.751 907.822C699.221 907.414 697.436 907.21 695.396 907.21C692.438 907.21 689.633 907.72 686.981 908.74C684.431 909.76 682.136 911.341 680.096 913.483C678.158 915.625 676.577 918.328 675.353 921.592C674.231 924.754 673.67 928.528 673.67 932.914V973H665.714ZM771.434 937.045H720.179V939.187C720.179 948.163 722.576 955.201 727.37 960.301C732.266 965.299 738.896 967.798 747.26 967.798C753.89 967.798 760.112 966.676 765.926 964.432L767.762 970.552C765.11 971.674 761.897 972.541 758.123 973.153C754.451 973.867 750.677 974.224 746.801 974.224C742.007 974.224 737.468 973.51 733.184 972.082C729.002 970.654 725.33 968.461 722.168 965.503C719.006 962.443 716.507 958.618 714.671 954.028C712.835 949.336 711.917 943.726 711.917 937.198C711.917 931.588 712.682 926.488 714.212 921.898C715.742 917.308 717.935 913.432 720.791 910.27C723.647 907.006 727.013 904.507 730.889 902.773C734.765 901.039 739.1 900.172 743.894 900.172C747.974 900.172 751.697 900.937 755.063 902.467C758.531 903.895 761.438 905.986 763.784 908.74C766.232 911.494 768.119 914.809 769.445 918.685C770.771 922.561 771.434 926.845 771.434 931.537V937.045ZM763.172 930.619C763.172 927.661 762.815 924.754 762.101 921.898C761.387 918.94 760.214 916.339 758.582 914.095C757.052 911.851 755.012 910.066 752.462 908.74C750.014 907.312 747.005 906.598 743.435 906.598C737.213 906.598 732.011 908.689 727.829 912.871C723.749 917.053 721.301 922.969 720.485 930.619H763.172ZM843.751 937.045H792.496V939.187C792.496 948.163 794.893 955.201 799.687 960.301C804.583 965.299 811.213 967.798 819.577 967.798C826.207 967.798 832.429 966.676 838.243 964.432L840.079 970.552C837.427 971.674 834.214 972.541 830.44 973.153C826.768 973.867 822.994 974.224 819.118 974.224C814.324 974.224 809.785 973.51 805.501 972.082C801.319 970.654 797.647 968.461 794.485 965.503C791.323 962.443 788.824 958.618 786.988 954.028C785.152 949.336 784.234 943.726 784.234 937.198C784.234 931.588 784.999 926.488 786.529 921.898C788.059 917.308 790.252 913.432 793.108 910.27C795.964 907.006 799.33 904.507 803.206 902.773C807.082 901.039 811.417 900.172 816.211 900.172C820.291 900.172 824.014 900.937 827.38 902.467C830.848 903.895 833.755 905.986 836.101 908.74C838.549 911.494 840.436 914.809 841.762 918.685C843.088 922.561 843.751 926.845 843.751 931.537V937.045ZM835.489 930.619C835.489 927.661 835.132 924.754 834.418 921.898C833.704 918.94 832.531 916.339 830.899 914.095C829.369 911.851 827.329 910.066 824.779 908.74C822.331 907.312 819.322 906.598 815.752 906.598C809.53 906.598 804.328 908.689 800.146 912.871C796.066 917.053 793.618 922.969 792.802 930.619H835.489Z" fill="#777"/>
<rect x="142" width="740" height="740" rx="311" fill="#fafa00"/>
<path d="M488.578 184H536.867L684.678 555H628.144L587.511 451.944H434.989L394.944 555H339L488.578 184ZM449.711 408.956H571.611L546.878 344.767C540.204 327.885 534.118 311.593 528.622 295.889C523.126 280.185 517.63 264.089 512.133 247.6H510.956C505.459 264.089 499.767 279.989 493.878 295.3C487.989 310.611 481.707 327.1 475.033 344.767L449.711 408.956Z" fill="white"/>
</svg>
