<svg height="140" viewBox="0 0 740 1009" fill="none" xmlns="http://www.w3.org/2000/svg">
<path d="M110.389 937.045C110.389 942.757 109.522 947.908 107.788 952.498C106.156 957.088 103.912 961.015 101.056 964.279C98.1999 967.441 94.8339 969.889 90.9579 971.623C87.0819 973.357 83.0019 974.224 78.7179 974.224C74.0259 974.224 69.9969 973.612 66.6309 972.388C63.2649 971.062 60.0519 969.022 56.9919 966.268H56.6859L55.7679 973H49.4949V864.37H57.4509V910.117C59.5929 907.771 62.5509 905.527 66.3249 903.385C70.2009 901.243 74.5869 900.172 79.4829 900.172C83.7669 900.172 87.7959 900.937 91.5699 902.467C95.3439 903.997 98.6079 906.292 101.362 909.352C104.218 912.412 106.411 916.288 107.941 920.98C109.573 925.57 110.389 930.925 110.389 937.045ZM102.127 937.198C102.127 927.1 99.9339 919.501 95.5479 914.401C91.2639 909.199 85.6539 906.598 78.7179 906.598C76.5759 906.598 74.4339 906.955 72.2919 907.669C70.2519 908.281 68.3139 909.148 66.4779 910.27C64.6419 911.29 62.9589 912.514 61.4289 913.942C59.8989 915.268 58.5729 916.645 57.4509 918.073V959.689C59.4909 962.035 62.2449 963.973 65.7129 965.503C69.2829 967.033 73.0059 967.798 76.8819 967.798C80.2479 967.798 83.4099 967.135 86.3679 965.809C89.4279 964.483 92.1309 962.545 94.4769 959.995C96.8229 957.343 98.6589 954.13 99.9849 950.356C101.413 946.48 102.127 942.094 102.127 937.198ZM128.983 973V901.09H136.939V973H128.983ZM133.114 882.577C131.482 882.577 130.054 882.067 128.83 881.047C127.708 879.925 127.147 878.395 127.147 876.457C127.147 874.417 127.708 872.836 128.83 871.714C129.952 870.592 131.329 870.031 132.961 870.031C134.491 870.031 135.817 870.592 136.939 871.714C138.163 872.734 138.775 874.315 138.775 876.457C138.775 878.497 138.214 880.027 137.092 881.047C135.97 882.067 134.644 882.577 133.114 882.577ZM168.75 973H160.794V901.09H166.608L167.832 911.035C171.3 907.771 175.023 905.17 179.001 903.232C183.081 901.192 187.671 900.172 192.771 900.172C200.115 900.172 205.827 902.212 209.907 906.292C214.089 910.372 216.18 916.084 216.18 923.428V973H208.224V925.417C208.224 922.765 207.918 920.317 207.306 918.073C206.796 915.727 205.827 913.738 204.399 912.106C203.073 910.372 201.237 909.046 198.891 908.128C196.647 907.108 193.842 906.598 190.476 906.598C186.6 906.598 182.724 907.618 178.848 909.658C175.074 911.596 171.708 914.248 168.75 917.614V973ZM237.404 907.363C242.198 904.813 246.584 902.977 250.562 901.855C254.642 900.733 258.977 900.172 263.567 900.172C266.831 900.172 269.891 900.631 272.747 901.549C275.705 902.467 278.255 903.946 280.397 905.986C282.641 908.026 284.375 910.729 285.599 914.095C286.925 917.359 287.588 921.388 287.588 926.182V973H282.08L280.397 963.514H280.091C277.133 967.084 273.665 969.787 269.687 971.623C265.709 973.357 261.272 974.224 256.376 974.224C253.01 974.224 249.899 973.765 247.043 972.847C244.187 971.827 241.688 970.399 239.546 968.563C237.506 966.727 235.874 964.534 234.65 961.984C233.528 959.332 232.967 956.425 232.967 953.263C232.967 949.489 233.732 946.174 235.262 943.318C236.792 940.462 238.934 938.116 241.688 936.28C244.442 934.342 247.706 932.914 251.48 931.996C255.356 931.078 259.64 930.619 264.332 930.619H279.632V925.876C279.632 918.94 278.102 913.993 275.042 911.035C271.982 908.077 268.004 906.598 263.108 906.598C260.15 906.598 256.733 907.057 252.857 907.975C248.981 908.893 244.85 910.576 240.464 913.024L237.404 907.363ZM279.632 936.892L266.933 937.045C262.343 937.147 258.416 937.657 255.152 938.575C251.888 939.391 249.185 940.513 247.043 941.941C245.003 943.267 243.524 944.899 242.606 946.837C241.688 948.673 241.229 950.662 241.229 952.804C241.229 955.456 241.688 957.751 242.606 959.689C243.524 961.525 244.748 963.055 246.278 964.279C247.808 965.503 249.593 966.421 251.633 967.033C253.775 967.543 256.019 967.798 258.365 967.798C260.201 967.798 262.088 967.594 264.026 967.186C265.964 966.676 267.851 965.962 269.687 965.044C271.625 964.024 273.461 962.8 275.195 961.372C276.929 959.842 278.408 958.006 279.632 955.864V936.892ZM309.006 973V901.09H314.208L316.044 915.472C317.778 910.882 320.736 907.21 324.918 904.456C329.1 901.6 333.792 900.172 338.994 900.172C341.442 900.172 343.584 900.376 345.42 900.784C347.256 901.192 348.684 901.651 349.704 902.161L348.174 909.199C346.95 908.689 345.573 908.23 344.043 907.822C342.513 907.414 340.728 907.21 338.688 907.21C335.73 907.21 332.925 907.72 330.273 908.74C327.723 909.76 325.428 911.341 323.388 913.483C321.45 915.625 319.869 918.328 318.645 921.592C317.523 924.754 316.962 928.528 316.962 932.914V973H309.006ZM356.596 901.09H364.858L383.524 948.826L389.032 965.044H389.338L394.081 948.826L410.911 901.09H418.561L390.868 979.12C388.114 986.872 384.595 993.094 380.311 997.786C376.027 1002.48 370.876 1006 364.858 1008.34L361.645 1002.53C366.847 1000.39 371.284 997.429 374.956 993.655C378.628 989.881 381.688 984.373 384.136 977.131L385.513 973L356.596 901.09ZM500.373 907.21H476.199V954.334C476.199 959.128 477.27 962.392 479.412 964.126C481.554 965.758 484.512 966.574 488.286 966.574C491.244 966.574 493.998 966.319 496.548 965.809C499.098 965.197 501.24 964.585 502.974 963.973L504.198 969.94C502.158 970.756 499.659 971.47 496.701 972.082C493.743 972.694 490.479 973 486.909 973C480.789 973 476.148 971.572 472.986 968.716C469.824 965.758 468.243 961.321 468.243 955.405V907.21H455.238V901.09H468.243V878.14H476.199V901.09H500.373V907.21ZM518.335 973V901.09H523.537L525.373 915.472C527.107 910.882 530.065 907.21 534.247 904.456C538.429 901.6 543.121 900.172 548.323 900.172C550.771 900.172 552.913 900.376 554.749 900.784C556.585 901.192 558.013 901.651 559.033 902.161L557.503 909.199C556.279 908.689 554.902 908.23 553.372 907.822C551.842 907.414 550.057 907.21 548.017 907.21C545.059 907.21 542.254 907.72 539.602 908.74C537.052 909.76 534.757 911.341 532.717 913.483C530.779 915.625 529.198 918.328 527.974 921.592C526.852 924.754 526.291 928.528 526.291 932.914V973H518.335ZM624.055 937.045H572.8V939.187C572.8 948.163 575.197 955.201 579.991 960.301C584.887 965.299 591.517 967.798 599.881 967.798C606.511 967.798 612.733 966.676 618.547 964.432L620.383 970.552C617.731 971.674 614.518 972.541 610.744 973.153C607.072 973.867 603.298 974.224 599.422 974.224C594.628 974.224 590.089 973.51 585.805 972.082C581.623 970.654 577.951 968.461 574.789 965.503C571.627 962.443 569.128 958.618 567.292 954.028C565.456 949.336 564.538 943.726 564.538 937.198C564.538 931.588 565.303 926.488 566.833 921.898C568.363 917.308 570.556 913.432 573.412 910.27C576.268 907.006 579.634 904.507 583.51 902.773C587.386 901.039 591.721 900.172 596.515 900.172C600.595 900.172 604.318 900.937 607.684 902.467C611.152 903.895 614.059 905.986 616.405 908.74C618.853 911.494 620.74 914.809 622.066 918.685C623.392 922.561 624.055 926.845 624.055 931.537V937.045ZM615.793 930.619C615.793 927.661 615.436 924.754 614.722 921.898C614.008 918.94 612.835 916.339 611.203 914.095C609.673 911.851 607.633 910.066 605.083 908.74C602.635 907.312 599.626 906.598 596.056 906.598C589.834 906.598 584.632 908.689 580.45 912.871C576.37 917.053 573.922 922.969 573.106 930.619H615.793ZM696.372 937.045H645.117V939.187C645.117 948.163 647.514 955.201 652.308 960.301C657.204 965.299 663.834 967.798 672.198 967.798C678.828 967.798 685.05 966.676 690.864 964.432L692.7 970.552C690.048 971.674 686.835 972.541 683.061 973.153C679.389 973.867 675.615 974.224 671.739 974.224C666.945 974.224 662.406 973.51 658.122 972.082C653.94 970.654 650.268 968.461 647.106 965.503C643.944 962.443 641.445 958.618 639.609 954.028C637.773 949.336 636.855 943.726 636.855 937.198C636.855 931.588 637.62 926.488 639.15 921.898C640.68 917.308 642.873 913.432 645.729 910.27C648.585 907.006 651.951 904.507 655.827 902.773C659.703 901.039 664.038 900.172 668.832 900.172C672.912 900.172 676.635 900.937 680.001 902.467C683.469 903.895 686.376 905.986 688.722 908.74C691.17 911.494 693.057 914.809 694.383 918.685C695.709 922.561 696.372 926.845 696.372 931.537V937.045ZM688.11 930.619C688.11 927.661 687.753 924.754 687.039 921.898C686.325 918.94 685.152 916.339 683.52 914.095C681.99 911.851 679.95 910.066 677.4 908.74C674.952 907.312 671.943 906.598 668.373 906.598C662.151 906.598 656.949 908.689 652.767 912.871C648.687 917.053 646.239 922.969 645.423 930.619H688.11Z" fill="#777777"/>
<path d="M0 370C0 70 173 0 370 0C567 0 740 70 740 370C740 670 567 740 370 740C173 740 0 670 0 370Z" fill="#FAFA00"/>
<path d="M446.379 493.768V303.387C446.379 288.803 443.417 276.157 437.492 265.447C431.796 254.51 423.137 246.079 411.516 240.154C399.895 234.23 385.539 231.268 368.449 231.268C352.499 231.268 338.485 234.002 326.408 239.471C314.559 244.939 305.217 252.117 298.381 261.004C291.773 269.891 288.469 279.461 288.469 289.715H225.236C225.236 276.499 228.654 263.396 235.49 250.408C242.326 237.42 252.124 225.685 264.885 215.203C277.873 204.493 293.368 196.062 311.369 189.91C329.598 183.53 349.878 180.34 372.209 180.34C399.097 180.34 422.795 184.897 443.303 194.012C464.038 203.126 480.217 216.912 491.838 235.369C503.687 253.598 509.611 276.499 509.611 304.07V476.336C509.611 488.641 510.637 501.743 512.688 515.643C514.966 529.542 518.27 541.505 522.6 551.531L525 557H456.633C453.443 549.708 450.936 540.024 449.113 527.947C447.29 515.643 446.379 504.249 446.379 493.768ZM457.316 332.781L458 377.215H394.084C376.083 377.215 360.018 378.696 345.891 381.658C331.763 384.393 319.914 388.608 310.344 394.305C300.773 400.001 293.482 407.179 288.469 415.838C283.456 424.269 280.949 434.181 280.949 445.574C280.949 457.195 283.57 467.791 288.811 477.361C294.051 486.932 301.913 494.565 312.395 500.262C323.104 505.73 336.206 508.465 351.701 508.465C371.07 508.465 388.16 504.363 402.971 496.16C417.782 487.957 429.517 477.931 438.176 466.082C447.062 454.233 451.848 442.726 452.531 431.561L479.533 461.98C477.938 471.551 473.609 482.146 466.545 493.768C459.481 505.389 450.025 516.554 438.176 527.264C426.555 537.745 412.655 546.518 396.477 553.582C380.526 560.418 362.525 563.836 342.473 563.836C317.408 563.836 295.419 558.937 276.506 549.139C257.821 539.34 243.238 526.238 232.756 509.832C222.502 493.198 217.375 474.627 217.375 454.119C217.375 434.295 221.249 416.863 228.996 401.824C236.743 386.557 247.909 373.911 262.492 363.885C277.076 353.631 294.621 345.883 315.129 340.643C335.637 335.402 358.537 332.781 383.83 332.781H457.316Z" fill="white"/>
</svg>
